<?xml version="1.0"?>
<svg xmlns="http://www.w3.org/2000/svg" xmlns:xlink="http://www.w3.org/1999/xlink" xmlns:svgjs="http://svgjs.com/svgjs" version="1.1" width="512" height="512" x="0" y="0" viewBox="0 0 512 512" style="enable-background:new 0 0 512 512" xml:space="preserve" class=""><g><g xmlns="http://www.w3.org/2000/svg"><path d="m437.02 74.98c-48.353-48.351-112.64-74.98-181.02-74.98s-132.667 26.629-181.02 74.98c-48.351 48.353-74.98 112.64-74.98 181.02 0 4.142 3.358 7.5 7.5 7.5s7.5-3.358 7.5-7.5c0-64.374 25.068-124.894 70.587-170.413s106.039-70.587 170.413-70.587 124.894 25.068 170.413 70.587 70.587 106.039 70.587 170.413-25.068 124.894-70.587 170.413-106.039 70.587-170.413 70.587c-4.142 0-7.5 3.358-7.5 7.5s3.358 7.5 7.5 7.5c68.38 0 132.667-26.629 181.02-74.98 48.351-48.353 74.98-112.64 74.98-181.02s-26.629-132.667-74.98-181.02z" fill="#ffffff" data-original="#000000" style="" class=""/><path d="m207.404 442.665c-7.229-1.9-14.471-4.273-21.525-7.053-9.368-3.692-19.826-1.169-26.502 5.675-29.958-15.66-55.866-38.513-75.197-66.396-2.359-3.404-7.033-4.251-10.437-1.891s-4.25 7.033-1.891 10.437c21.995 31.725 51.936 57.373 86.588 74.172 1.791.868 3.86.973 5.74.321 1.88-.653 3.43-2.041 4.297-3.832 2.137-4.415 7.255-6.362 11.902-4.531 7.603 2.996 15.413 5.555 23.212 7.604 7.562 1.988 12.844 8.614 12.844 16.114v10.054c0 2.609-1.17 5.055-3.209 6.711-1.167.947-3.629 2.431-7 1.723-45.692-9.596-87.391-32.215-120.588-65.412s-55.816-74.896-65.412-120.588c-.708-3.372.776-5.833 1.723-7 1.656-2.039 4.102-3.209 6.711-3.209h10.054c7.5 0 14.125 5.282 16.113 12.844 2.05 7.8 4.609 15.609 7.605 23.212 1.832 4.648-.116 9.765-4.573 11.922l-.029.014c-3.709 1.823-5.23 6.297-3.418 10.012 1.811 3.714 6.3 5.256 10.022 3.456 11.364-5.499 16.614-19.074 11.952-30.904-2.78-7.054-5.152-14.296-7.053-21.525-3.719-14.149-16.311-24.031-30.621-24.031h-10.052c-7.149 0-13.84 3.191-18.356 8.755-4.474 5.511-6.208 12.632-4.757 19.537 10.196 48.55 34.223 92.85 69.485 128.112s79.562 59.289 128.112 69.485c1.599.336 3.208.501 4.807.501 5.309 0 10.495-1.82 14.73-5.258 5.564-4.517 8.755-11.208 8.755-18.356v-10.054c0-14.31-9.882-26.902-24.032-30.621z" fill="#ffffff" data-original="#000000" style="" class=""/><path d="m230.258 241.491c3.022 0 5.871-1.84 7.01-4.833l5.689-14.938h38.22l5.629 14.917c1.462 3.875 5.789 5.832 9.665 4.369 3.875-1.462 5.832-5.79 4.369-9.665l-29.957-79.381c-.026-.069-.054-.138-.082-.207-1.445-3.509-4.829-5.775-8.623-5.775-.003 0-.007 0-.01 0-3.799.004-7.183 2.278-8.621 5.794-.023.057-.046.114-.067.171l-30.231 79.377c-1.475 3.871.468 8.204 4.339 9.678.881.335 1.783.493 2.67.493zm31.898-70.178 13.362 35.407h-26.847z" fill="#ffffff" data-original="#000000" style="" class=""/><path d="m325.571 145.978c-4.142 0-7.5 3.358-7.5 7.5v80.443c0 3.654 2.633 6.776 6.235 7.393.533.091 1.045.179 9.859.179 4.276 0 10.506-.021 19.64-.071 4.142-.023 7.481-3.4 7.458-7.542-.023-4.128-3.376-7.458-7.499-7.458-.014 0-.029 0-.043 0-7.294.041-15.137.105-20.65.068v-73.011c0-4.144-3.358-7.501-7.5-7.501z" fill="#ffffff" data-original="#000000" style="" class=""/><path d="m384.534 145.978c-4.142 0-7.5 3.358-7.5 7.5v80.443c0 3.654 2.633 6.776 6.234 7.393.533.091 1.043.179 9.862.179 4.276 0 10.507-.021 19.638-.071 4.142-.023 7.481-3.4 7.458-7.542-.023-4.128-3.376-7.458-7.499-7.458-.014 0-.029 0-.043 0-7.293.041-15.141.105-20.65.068v-73.011c0-4.144-3.358-7.501-7.5-7.501z" fill="#ffffff" data-original="#000000" style="" class=""/><path d="m177.54 160.978c6.565 0 12.896 1.933 18.309 5.59 3.433 2.32 8.095 1.416 10.413-2.017 2.319-3.432 1.416-8.094-2.017-10.413-7.902-5.338-17.137-8.16-26.706-8.16-26.333 0-47.755 21.423-47.755 47.755s21.423 47.756 47.755 47.756c10.45 0 19.814-3.42 27.082-9.893 1.425-1.27 2.78-2.667 4.026-4.153 2.662-3.174 2.246-7.905-.928-10.566-3.175-2.663-7.905-2.246-10.566.928-.78.931-1.625 1.802-2.508 2.589-4.541 4.044-10.296 6.094-17.106 6.094-18.062 0-32.755-14.694-32.755-32.756s14.695-32.754 32.756-32.754z" fill="#ffffff" data-original="#000000" style="" class=""/><path d="m138.122 270.917c-3.134.977-5.268 3.878-5.268 7.16v80.361c0 4.142 3.358 7.5 7.5 7.5s7.5-3.358 7.5-7.5v-56.302l40.665 58.884c2.306 3.332 6.111 4.762 9.695 3.642 3.68-1.149 6.058-4.657 6.058-9.01l-.752-77.798c-.04-4.117-3.39-7.427-7.498-7.427-.024 0-.049 0-.074 0-4.142.04-7.467 3.43-7.427 7.572l.556 57.43-42.55-61.614c-1.867-2.701-5.272-3.874-8.405-2.898z" fill="#ffffff" data-original="#000000" style="" class=""/><path d="m369.663 275.856-17.822 57.58-11.268-56.965c-.804-4.064-4.753-6.707-8.812-5.902-4.063.804-6.706 4.75-5.902 8.812l15.686 79.302c.071.358.168.711.29 1.055 1.319 3.714 4.842 6.199 8.78 6.199h.063c3.962-.027 7.482-2.565 8.758-6.317.022-.065.043-.131.064-.197l17.334-56.004 17.257 56.017c.031.102.064.202.1.302 1.319 3.714 4.842 6.199 8.779 6.199h.063c3.962-.027 7.482-2.565 8.758-6.317.106-.311.191-.629.255-.951l15.749-79.131c.808-4.062-1.83-8.011-5.892-8.82-4.062-.806-8.011 1.829-8.82 5.892l-11.309 56.822-17.78-57.714-.049.015c-.734-2.226-2.492-4.078-4.901-4.823-3.955-1.223-8.156.989-9.381 4.946z" fill="#ffffff" data-original="#000000" style="" class=""/><path d="m315.377 318.182c0-26.333-21.423-47.756-47.756-47.756s-47.755 21.423-47.755 47.756 21.423 47.755 47.755 47.755 47.756-21.422 47.756-47.755zm-80.511 0c0-18.062 14.694-32.756 32.755-32.756s32.756 14.694 32.756 32.756-14.694 32.755-32.756 32.755-32.755-14.693-32.755-32.755z" fill="#ffffff" data-original="#000000" style="" class=""/></g></g></svg>
